<svg xmlns="http://www.w3.org/2000/svg" viewBox="0 0 1020 1010">
<rect width="1020" height="1010" fill="#07111c"/>
<style>text{font-family:Arial,sans-serif;fill:#dbeafe}.sub{font-size:13px;fill:#9bb4cd}</style>
<text x="510" y="35" text-anchor="middle" font-size="20">Radial displacement histograms · all selected objects</text>
<text x="90" y="77" font-size="17">Signed RSD displacement</text>
<rect x="90" y="95" width="850" height="205" fill="#0d1b2a" stroke="#456079"/>
<rect x="90.00" y="206.79" width="20.25" height="93.21" fill="#55aaff"/>
<rect x="111.25" y="155.91" width="20.25" height="144.09" fill="#55aaff"/>
<rect x="132.50" y="144.11" width="20.25" height="155.89" fill="#55aaff"/>
<rect x="153.75" y="134.34" width="20.25" height="165.66" fill="#55aaff"/>
<rect x="175.00" y="103.00" width="20.25" height="197.00" fill="#55aaff"/>
<rect x="196.25" y="129.46" width="20.25" height="170.54" fill="#55aaff"/>
<rect x="217.50" y="131.90" width="20.25" height="168.10" fill="#55aaff"/>
<rect x="238.75" y="131.90" width="20.25" height="168.10" fill="#55aaff"/>
<rect x="260.00" y="134.75" width="20.25" height="165.25" fill="#55aaff"/>
<rect x="281.25" y="159.98" width="20.25" height="140.02" fill="#55aaff"/>
<rect x="302.50" y="154.29" width="20.25" height="145.71" fill="#55aaff"/>
<rect x="323.75" y="153.88" width="20.25" height="146.12" fill="#55aaff"/>
<rect x="345.00" y="130.68" width="20.25" height="169.32" fill="#55aaff"/>
<rect x="366.25" y="144.92" width="20.25" height="155.08" fill="#55aaff"/>
<rect x="387.50" y="157.13" width="20.25" height="142.87" fill="#55aaff"/>
<rect x="408.75" y="148.99" width="20.25" height="151.01" fill="#55aaff"/>
<rect x="430.00" y="157.54" width="20.25" height="142.46" fill="#55aaff"/>
<rect x="451.25" y="150.21" width="20.25" height="149.79" fill="#55aaff"/>
<rect x="472.50" y="129.86" width="20.25" height="170.14" fill="#55aaff"/>
<rect x="493.75" y="188.07" width="20.25" height="111.93" fill="#55aaff"/>
<rect x="515.00" y="220.63" width="20.25" height="79.37" fill="#55aaff"/>
<rect x="536.25" y="284.13" width="20.25" height="15.87" fill="#55aaff"/>
<rect x="557.50" y="298.78" width="20.25" height="1.22" fill="#55aaff"/>
<rect x="578.75" y="298.78" width="20.25" height="1.22" fill="#55aaff"/>
<rect x="600.00" y="298.78" width="20.25" height="1.22" fill="#55aaff"/>
<rect x="621.25" y="298.78" width="20.25" height="1.22" fill="#55aaff"/>
<rect x="642.50" y="300.00" width="20.25" height="0.00" fill="#55aaff"/>
<rect x="663.75" y="300.00" width="20.25" height="0.00" fill="#55aaff"/>
<rect x="685.00" y="300.00" width="20.25" height="0.00" fill="#55aaff"/>
<rect x="706.25" y="300.00" width="20.25" height="0.00" fill="#55aaff"/>
<rect x="727.50" y="300.00" width="20.25" height="0.00" fill="#55aaff"/>
<rect x="748.75" y="300.00" width="20.25" height="0.00" fill="#55aaff"/>
<rect x="770.00" y="300.00" width="20.25" height="0.00" fill="#55aaff"/>
<rect x="791.25" y="300.00" width="20.25" height="0.00" fill="#55aaff"/>
<rect x="812.50" y="300.00" width="20.25" height="0.00" fill="#55aaff"/>
<rect x="833.75" y="300.00" width="20.25" height="0.00" fill="#55aaff"/>
<rect x="855.00" y="300.00" width="20.25" height="0.00" fill="#55aaff"/>
<rect x="876.25" y="300.00" width="20.25" height="0.00" fill="#55aaff"/>
<rect x="897.50" y="300.00" width="20.25" height="0.00" fill="#55aaff"/>
<rect x="918.75" y="300.00" width="20.25" height="0.00" fill="#55aaff"/>
<text x="90" y="323" class="sub">-7.67 Mpc</text>
<text x="940" y="323" text-anchor="end" class="sub">7.67 Mpc</text>
<text x="515.0" y="323" text-anchor="middle" class="sub">nonzero values · p99 display range · 79 outliers outside</text>
<text x="90" y="382" font-size="17">Absolute RSD displacement</text>
<rect x="90" y="400" width="850" height="205" fill="#0d1b2a" stroke="#456079"/>
<rect x="90.00" y="418.94" width="20.25" height="186.06" fill="#f07a52"/>
<rect x="111.25" y="448.13" width="20.25" height="156.87" fill="#f07a52"/>
<rect x="132.50" y="431.35" width="20.25" height="173.65" fill="#f07a52"/>
<rect x="153.75" y="445.21" width="20.25" height="159.79" fill="#f07a52"/>
<rect x="175.00" y="458.34" width="20.25" height="146.66" fill="#f07a52"/>
<rect x="196.25" y="480.96" width="20.25" height="124.04" fill="#f07a52"/>
<rect x="217.50" y="467.83" width="20.25" height="137.17" fill="#f07a52"/>
<rect x="238.75" y="484.61" width="20.25" height="120.39" fill="#f07a52"/>
<rect x="260.00" y="490.45" width="20.25" height="114.55" fill="#f07a52"/>
<rect x="281.25" y="446.67" width="20.25" height="158.33" fill="#f07a52"/>
<rect x="302.50" y="473.67" width="20.25" height="131.33" fill="#f07a52"/>
<rect x="323.75" y="478.04" width="20.25" height="126.96" fill="#f07a52"/>
<rect x="345.00" y="463.45" width="20.25" height="141.55" fill="#f07a52"/>
<rect x="366.25" y="468.56" width="20.25" height="136.44" fill="#f07a52"/>
<rect x="387.50" y="445.21" width="20.25" height="159.79" fill="#f07a52"/>
<rect x="408.75" y="461.26" width="20.25" height="143.74" fill="#f07a52"/>
<rect x="430.00" y="473.67" width="20.25" height="131.33" fill="#f07a52"/>
<rect x="451.25" y="474.40" width="20.25" height="130.60" fill="#f07a52"/>
<rect x="472.50" y="467.83" width="20.25" height="137.17" fill="#f07a52"/>
<rect x="493.75" y="480.96" width="20.25" height="124.04" fill="#f07a52"/>
<rect x="515.00" y="487.53" width="20.25" height="117.47" fill="#f07a52"/>
<rect x="536.25" y="471.48" width="20.25" height="133.52" fill="#f07a52"/>
<rect x="557.50" y="464.18" width="20.25" height="140.82" fill="#f07a52"/>
<rect x="578.75" y="449.59" width="20.25" height="155.41" fill="#f07a52"/>
<rect x="600.00" y="455.43" width="20.25" height="149.57" fill="#f07a52"/>
<rect x="621.25" y="453.24" width="20.25" height="151.76" fill="#f07a52"/>
<rect x="642.50" y="451.78" width="20.25" height="153.22" fill="#f07a52"/>
<rect x="663.75" y="456.89" width="20.25" height="148.11" fill="#f07a52"/>
<rect x="685.00" y="453.24" width="20.25" height="151.76" fill="#f07a52"/>
<rect x="706.25" y="451.05" width="20.25" height="153.95" fill="#f07a52"/>
<rect x="727.50" y="448.86" width="20.25" height="156.14" fill="#f07a52"/>
<rect x="748.75" y="408.00" width="20.25" height="197.00" fill="#f07a52"/>
<rect x="770.00" y="459.80" width="20.25" height="145.20" fill="#f07a52"/>
<rect x="791.25" y="453.24" width="20.25" height="151.76" fill="#f07a52"/>
<rect x="812.50" y="475.13" width="20.25" height="129.87" fill="#f07a52"/>
<rect x="833.75" y="455.43" width="20.25" height="149.57" fill="#f07a52"/>
<rect x="855.00" y="486.80" width="20.25" height="118.20" fill="#f07a52"/>
<rect x="876.25" y="464.91" width="20.25" height="140.09" fill="#f07a52"/>
<rect x="897.50" y="497.74" width="20.25" height="107.26" fill="#f07a52"/>
<rect x="918.75" y="545.17" width="20.25" height="59.83" fill="#f07a52"/>
<text x="90" y="628" class="sub">0.00 Mpc</text>
<text x="940" y="628" text-anchor="end" class="sub">7.67 Mpc</text>
<text x="515.0" y="628" text-anchor="middle" class="sub">nonzero values · p99 display range · 79 outliers outside</text>
<text x="90" y="687" font-size="17">Absolute applied displacement (fog)</text>
<rect x="90" y="705" width="850" height="205" fill="#0d1b2a" stroke="#456079"/>
<rect x="90.00" y="776.74" width="20.25" height="133.26" fill="#b993ff"/>
<rect x="111.25" y="713.00" width="20.25" height="197.00" fill="#b993ff"/>
<rect x="132.50" y="753.56" width="20.25" height="156.44" fill="#b993ff"/>
<rect x="153.75" y="753.56" width="20.25" height="156.44" fill="#b993ff"/>
<rect x="175.00" y="828.88" width="20.25" height="81.12" fill="#b993ff"/>
<rect x="196.25" y="770.94" width="20.25" height="139.06" fill="#b993ff"/>
<rect x="217.50" y="846.26" width="20.25" height="63.74" fill="#b993ff"/>
<rect x="238.75" y="857.85" width="20.25" height="52.15" fill="#b993ff"/>
<rect x="260.00" y="828.88" width="20.25" height="81.12" fill="#b993ff"/>
<rect x="281.25" y="869.44" width="20.25" height="40.56" fill="#b993ff"/>
<rect x="302.50" y="881.03" width="20.25" height="28.97" fill="#b993ff"/>
<rect x="323.75" y="881.03" width="20.25" height="28.97" fill="#b993ff"/>
<rect x="345.00" y="898.41" width="20.25" height="11.59" fill="#b993ff"/>
<rect x="366.25" y="875.24" width="20.25" height="34.76" fill="#b993ff"/>
<rect x="387.50" y="904.21" width="20.25" height="5.79" fill="#b993ff"/>
<rect x="408.75" y="898.41" width="20.25" height="11.59" fill="#b993ff"/>
<rect x="430.00" y="904.21" width="20.25" height="5.79" fill="#b993ff"/>
<rect x="451.25" y="886.82" width="20.25" height="23.18" fill="#b993ff"/>
<rect x="472.50" y="892.62" width="20.25" height="17.38" fill="#b993ff"/>
<rect x="493.75" y="904.21" width="20.25" height="5.79" fill="#b993ff"/>
<rect x="515.00" y="898.41" width="20.25" height="11.59" fill="#b993ff"/>
<rect x="536.25" y="904.21" width="20.25" height="5.79" fill="#b993ff"/>
<rect x="557.50" y="910.00" width="20.25" height="0.00" fill="#b993ff"/>
<rect x="578.75" y="904.21" width="20.25" height="5.79" fill="#b993ff"/>
<rect x="600.00" y="910.00" width="20.25" height="0.00" fill="#b993ff"/>
<rect x="621.25" y="910.00" width="20.25" height="0.00" fill="#b993ff"/>
<rect x="642.50" y="904.21" width="20.25" height="5.79" fill="#b993ff"/>
<rect x="663.75" y="904.21" width="20.25" height="5.79" fill="#b993ff"/>
<rect x="685.00" y="910.00" width="20.25" height="0.00" fill="#b993ff"/>
<rect x="706.25" y="910.00" width="20.25" height="0.00" fill="#b993ff"/>
<rect x="727.50" y="910.00" width="20.25" height="0.00" fill="#b993ff"/>
<rect x="748.75" y="904.21" width="20.25" height="5.79" fill="#b993ff"/>
<rect x="770.00" y="904.21" width="20.25" height="5.79" fill="#b993ff"/>
<rect x="791.25" y="910.00" width="20.25" height="0.00" fill="#b993ff"/>
<rect x="812.50" y="910.00" width="20.25" height="0.00" fill="#b993ff"/>
<rect x="833.75" y="910.00" width="20.25" height="0.00" fill="#b993ff"/>
<rect x="855.00" y="910.00" width="20.25" height="0.00" fill="#b993ff"/>
<rect x="876.25" y="904.21" width="20.25" height="5.79" fill="#b993ff"/>
<rect x="897.50" y="910.00" width="20.25" height="0.00" fill="#b993ff"/>
<rect x="918.75" y="892.62" width="20.25" height="17.38" fill="#b993ff"/>
<text x="90" y="933" class="sub">0.00 Mpc</text>
<text x="940" y="933" text-anchor="end" class="sub">24.56 Mpc</text>
<text x="515.0" y="933" text-anchor="middle" class="sub">nonzero values · p99 display range · 3 outliers outside</text>
</svg>